<svg width="64" height="64" viewBox="0 0 64 64" fill="none" xmlns="http://www.w3.org/2000/svg">
<g clip-path="url(#clip0_100_14187)">
<path d="M1.28433 16.481C2.52997 8.58827 8.58827 2.52997 16.481 1.28433C20.9913 0.572504 26.3692 0 32 0C37.5187 0 42.7944 0.549932 47.2486 1.24198C55.2931 2.49186 61.4313 8.72398 62.6995 16.7656C63.4188 21.3268 64 26.6634 64 32C64 37.3366 63.4188 42.6732 62.6995 47.2344C61.4313 55.276 55.2931 61.5081 47.2486 62.758C42.7944 63.4501 37.5187 64 32 64C26.3692 64 20.9913 63.4275 16.481 62.7157C8.58827 61.47 2.52997 55.4117 1.28433 47.519C0.572504 43.0087 0 37.6308 0 32C0 26.3692 0.572504 20.9913 1.28433 16.481Z" fill="url(#paint0_linear_100_14187)"/>
<path d="M35.4597 14.2929C35.93 14.6457 35.93 15.3512 35.4597 15.704L29.0115 20.5401C28.4301 20.9762 27.6004 20.5613 27.6004 19.8346L27.6004 14.9984L27.6004 10.1623C27.6004 9.43553 28.4301 9.02069 29.0115 9.45673L35.4597 14.2929Z" fill="white"/>
<path d="M22.9241 31.5273L30.3358 39.9979L45.6888 23.5862" stroke="white" stroke-width="4" stroke-linecap="round" stroke-linejoin="round"/>
<path d="M51.9369 37.8586C52.2122 36.7889 51.5682 35.6985 50.4985 35.4232C49.4288 35.1479 48.3384 35.7919 48.0631 36.8616L51.9369 37.8586ZM32.2881 49.0762C23.2924 49.0762 16 41.7837 16 32.7881H12C12 43.9929 21.0833 53.0762 32.2881 53.0762V49.0762ZM16 32.7881C16 23.7924 23.2924 16.5 32.2881 16.5V12.5C21.0833 12.5 12 21.5833 12 32.7881H16ZM48.0631 36.8616C46.2549 43.8872 39.8749 49.0762 32.2881 49.0762V53.0762C41.7443 53.0762 49.6848 46.6086 51.9369 37.8586L48.0631 36.8616Z" fill="white"/>
</g>
<defs>
<linearGradient id="paint0_linear_100_14187" x1="32" y1="0" x2="32" y2="64" gradientUnits="userSpaceOnUse">
<stop stop-color="#FFBD55"/>
<stop offset="1" stop-color="#FD9D07"/>
</linearGradient>
<clipPath id="clip0_100_14187">
<rect width="64" height="64" rx="16" fill="white"/>
</clipPath>
</defs>
</svg>
