<svg width="64" height="64" viewBox="0 0 64 64" fill="none" xmlns="http://www.w3.org/2000/svg">
<g clip-path="url(#clip0_100_14143)">
<path d="M1.28433 16.481C2.52997 8.58827 8.58827 2.52997 16.481 1.28433C20.9913 0.572504 26.3692 0 32 0C37.5187 0 42.7944 0.549932 47.2486 1.24198C55.2931 2.49186 61.4313 8.72398 62.6995 16.7656C63.4188 21.3268 64 26.6634 64 32C64 37.3366 63.4188 42.6732 62.6995 47.2344C61.4313 55.276 55.2931 61.5081 47.2486 62.758C42.7944 63.4501 37.5187 64 32 64C26.3692 64 20.9913 63.4275 16.481 62.7157C8.58827 61.47 2.52997 55.4117 1.28433 47.519C0.572504 43.0087 0 37.6308 0 32C0 26.3692 0.572504 20.9913 1.28433 16.481Z" fill="url(#paint0_linear_100_14143)"/>
<g filter="url(#filter0_d_100_14143)">
<path d="M10.9275 28.7159L27.6792 34.9202C27.8817 34.9953 28.0386 35.1591 28.1047 35.3648L33.6694 52.6772C33.8781 53.3266 34.796 53.329 35.0082 52.6808L46.5741 17.3403C46.7523 16.796 46.2403 16.2782 45.694 16.4502L10.9606 27.3848C10.321 27.5861 10.2987 28.483 10.9275 28.7159Z" fill="white"/>
</g>
</g>
<defs>
<filter id="filter0_d_100_14143" x="9.46826" y="16.018" width="38.142" height="38.7461" filterUnits="userSpaceOnUse" color-interpolation-filters="sRGB">
<feFlood flood-opacity="0" result="BackgroundImageFix"/>
<feColorMatrix in="SourceAlpha" type="matrix" values="0 0 0 0 0 0 0 0 0 0 0 0 0 0 0 0 0 0 127 0" result="hardAlpha"/>
<feOffset dy="0.6"/>
<feGaussianBlur stdDeviation="0.5"/>
<feComposite in2="hardAlpha" operator="out"/>
<feColorMatrix type="matrix" values="0 0 0 0 0 0 0 0 0 0 0 0 0 0 0 0 0 0 0.3 0"/>
<feBlend mode="normal" in2="BackgroundImageFix" result="effect1_dropShadow_100_14143"/>
<feBlend mode="normal" in="SourceGraphic" in2="effect1_dropShadow_100_14143" result="shape"/>
</filter>
<linearGradient id="paint0_linear_100_14143" x1="32" y1="0" x2="32" y2="64" gradientUnits="userSpaceOnUse">
<stop stop-color="#5743F8"/>
<stop offset="1" stop-color="#4834EE"/>
</linearGradient>
<clipPath id="clip0_100_14143">
<rect width="64" height="64" fill="white"/>
</clipPath>
</defs>
</svg>
