<svg width="64" height="64" viewBox="0 0 64 64" fill="none" xmlns="http://www.w3.org/2000/svg">
<g clip-path="url(#clip0_100_14158)">
<path d="M1.28433 16.481C2.52997 8.58827 8.58827 2.52997 16.481 1.28433C20.9913 0.572504 26.3692 0 32 0C37.5187 0 42.7944 0.549932 47.2486 1.24198C55.2931 2.49186 61.4313 8.72398 62.6995 16.7656C63.4188 21.3268 64 26.6634 64 32C64 37.3366 63.4188 42.6732 62.6995 47.2344C61.4313 55.276 55.2931 61.5081 47.2486 62.758C42.7944 63.4501 37.5187 64 32 64C26.3692 64 20.9913 63.4275 16.481 62.7157C8.58827 61.47 2.52997 55.4117 1.28433 47.519C0.572504 43.0087 0 37.6308 0 32C0 26.3692 0.572504 20.9913 1.28433 16.481Z" fill="url(#paint0_linear_100_14158)"/>
<g filter="url(#filter0_d_100_14158)">
<path d="M18 22.8519L45.4444 40.4444L32.0741 51V13L45.4444 23.5556L18 40.4444" stroke="white" stroke-width="4.5" stroke-linecap="round" stroke-linejoin="round" shape-rendering="crispEdges"/>
</g>
</g>
<defs>
<filter id="filter0_d_100_14158" x="14.7496" y="10.35" width="33.9448" height="44.5" filterUnits="userSpaceOnUse" color-interpolation-filters="sRGB">
<feFlood flood-opacity="0" result="BackgroundImageFix"/>
<feColorMatrix in="SourceAlpha" type="matrix" values="0 0 0 0 0 0 0 0 0 0 0 0 0 0 0 0 0 0 127 0" result="hardAlpha"/>
<feOffset dy="0.6"/>
<feGaussianBlur stdDeviation="0.5"/>
<feComposite in2="hardAlpha" operator="out"/>
<feColorMatrix type="matrix" values="0 0 0 0 0 0 0 0 0 0 0 0 0 0 0 0 0 0 0.3 0"/>
<feBlend mode="normal" in2="BackgroundImageFix" result="effect1_dropShadow_100_14158"/>
<feBlend mode="normal" in="SourceGraphic" in2="effect1_dropShadow_100_14158" result="shape"/>
</filter>
<linearGradient id="paint0_linear_100_14158" x1="32" y1="0" x2="32" y2="64" gradientUnits="userSpaceOnUse">
<stop offset="0.377573" stop-color="#3E7BFF"/>
<stop offset="1" stop-color="#2066FF"/>
</linearGradient>
<clipPath id="clip0_100_14158">
<rect width="64" height="64" fill="white"/>
</clipPath>
</defs>
</svg>
