<svg width="64" height="64" viewBox="0 0 64 64" fill="none" xmlns="http://www.w3.org/2000/svg">
<g clip-path="url(#clip0_100_14148)">
<path d="M1.28433 16.481C2.52997 8.58827 8.58827 2.52997 16.481 1.28433C20.9913 0.572504 26.3692 0 32 0C37.5187 0 42.7944 0.549932 47.2486 1.24198C55.2931 2.49186 61.4313 8.72398 62.6995 16.7656C63.4188 21.3268 64 26.6634 64 32C64 37.3366 63.4188 42.6732 62.6995 47.2344C61.4313 55.276 55.2931 61.5081 47.2486 62.758C42.7944 63.4501 37.5187 64 32 64C26.3692 64 20.9913 63.4275 16.481 62.7157C8.58827 61.47 2.52997 55.4117 1.28433 47.519C0.572504 43.0087 0 37.6308 0 32C0 26.3692 0.572504 20.9913 1.28433 16.481Z" fill="url(#paint0_linear_100_14148)"/>
<g filter="url(#filter0_d_100_14148)">
<path fill-rule="evenodd" clip-rule="evenodd" d="M43.0882 15.5707C43.0882 15.5949 43.0715 15.6158 43.048 15.6212L24.079 19.957C23.8516 20.0089 23.6904 20.2112 23.6904 20.4444V20.6913V27.8049V37.2044C23.6904 37.5676 23.313 37.8126 22.9649 37.7087C21.1556 37.1684 19.0264 37.4807 17.2458 38.7275C14.3206 40.7758 13.4436 44.5705 15.2871 47.2032C17.1305 49.8359 20.9963 50.3097 23.9215 48.2614C26.067 46.7591 27.0391 44.6795 26.9127 42.6812C26.9125 42.6781 26.915 42.6755 26.918 42.6755V42.6755C26.921 42.6755 26.9234 42.6731 26.9234 42.6701V27.4646C26.9234 27.2313 27.0846 27.0291 27.312 26.9771L42.4768 23.5109C42.7898 23.4393 43.0882 23.6772 43.0882 23.9983V34.4876C43.0882 34.8466 42.7192 35.0911 42.3736 34.9939C40.5844 34.4911 38.497 34.8137 36.7465 36.0394C33.8213 38.0877 32.9443 41.8823 34.7877 44.515C36.6312 47.1478 40.4969 47.6215 43.4222 45.5733C45.3349 44.2339 46.3466 42.1116 46.3189 40.0906C46.3189 40.09 46.3194 40.0895 46.32 40.0895V40.0895C46.3207 40.0895 46.3212 40.0889 46.3212 40.0883L46.3212 22.6322L46.3212 15.5189L46.3212 15.5002C46.3212 15.1791 46.0228 14.9412 45.7098 15.0128L43.5357 15.5097C43.509 15.5158 43.4816 15.5189 43.4542 15.5189H43.14C43.1114 15.5189 43.0882 15.5421 43.0882 15.5707V15.5707Z" fill="white"/>
</g>
</g>
<defs>
<filter id="filter0_d_100_14148" x="13.9223" y="14" width="33.9989" height="36.5352" filterUnits="userSpaceOnUse" color-interpolation-filters="sRGB">
<feFlood flood-opacity="0" result="BackgroundImageFix"/>
<feColorMatrix in="SourceAlpha" type="matrix" values="0 0 0 0 0 0 0 0 0 0 0 0 0 0 0 0 0 0 127 0" result="hardAlpha"/>
<feOffset dx="0.6"/>
<feGaussianBlur stdDeviation="0.5"/>
<feComposite in2="hardAlpha" operator="out"/>
<feColorMatrix type="matrix" values="0 0 0 0 0 0 0 0 0 0 0 0 0 0 0 0 0 0 0.3 0"/>
<feBlend mode="normal" in2="BackgroundImageFix" result="effect1_dropShadow_100_14148"/>
<feBlend mode="normal" in="SourceGraphic" in2="effect1_dropShadow_100_14148" result="shape"/>
</filter>
<linearGradient id="paint0_linear_100_14148" x1="32" y1="0" x2="32" y2="64" gradientUnits="userSpaceOnUse">
<stop offset="0.377573" stop-color="#9A47ED"/>
<stop offset="1" stop-color="#7D1CE0"/>
</linearGradient>
<clipPath id="clip0_100_14148">
<rect width="64" height="64" fill="white"/>
</clipPath>
</defs>
</svg>
