<svg width="64" height="64" viewBox="0 0 64 64" fill="none" xmlns="http://www.w3.org/2000/svg">
<g clip-path="url(#clip0_100_14178)">
<path d="M1.28433 16.481C2.52997 8.58827 8.58827 2.52997 16.481 1.28433C20.9913 0.572504 26.3692 0 32 0C37.5187 0 42.7944 0.549932 47.2486 1.24198C55.2931 2.49186 61.4313 8.72398 62.6995 16.7656C63.4188 21.3268 64 26.6634 64 32C64 37.3366 63.4188 42.6732 62.6995 47.2344C61.4313 55.276 55.2931 61.5081 47.2486 62.758C42.7944 63.4501 37.5187 64 32 64C26.3692 64 20.9913 63.4275 16.481 62.7157C8.58827 61.47 2.52997 55.4117 1.28433 47.519C0.572504 43.0087 0 37.6308 0 32C0 26.3692 0.572504 20.9913 1.28433 16.481Z" fill="#1C1C1D"/>
<path d="M21 11H29.3012V51.8675L21 52.506V11Z" fill="url(#paint0_linear_100_14178)"/>
<path d="M43.9863 11H35.6851V51.8675L43.9863 52.506V11Z" fill="url(#paint1_linear_100_14178)"/>
<g filter="url(#filter0_d_100_14178)">
<path d="M21 27.6016L29.6205 35.9028L35.6867 35.9028L35.6867 27.6016L21 27.6016Z" fill="#D22F27"/>
</g>
<g filter="url(#filter1_d_100_14178)">
<path d="M43.9863 35.9028L35.6851 27.6016V51.8666L43.9863 52.5052V35.9028Z" fill="url(#paint2_linear_100_14178)"/>
</g>
</g>
<defs>
<filter id="filter0_d_100_14178" x="18.4458" y="25.0473" width="19.7952" height="13.4092" filterUnits="userSpaceOnUse" color-interpolation-filters="sRGB">
<feFlood flood-opacity="0" result="BackgroundImageFix"/>
<feColorMatrix in="SourceAlpha" type="matrix" values="0 0 0 0 0 0 0 0 0 0 0 0 0 0 0 0 0 0 127 0" result="hardAlpha"/>
<feOffset/>
<feGaussianBlur stdDeviation="1.27711"/>
<feComposite in2="hardAlpha" operator="out"/>
<feColorMatrix type="matrix" values="0 0 0 0 0 0 0 0 0 0 0 0 0 0 0 0 0 0 0.3 0"/>
<feBlend mode="normal" in2="BackgroundImageFix" result="effect1_dropShadow_100_14178"/>
<feBlend mode="normal" in="SourceGraphic" in2="effect1_dropShadow_100_14178" result="shape"/>
</filter>
<filter id="filter1_d_100_14178" x="33.1308" y="25.0473" width="13.4097" height="30.0108" filterUnits="userSpaceOnUse" color-interpolation-filters="sRGB">
<feFlood flood-opacity="0" result="BackgroundImageFix"/>
<feColorMatrix in="SourceAlpha" type="matrix" values="0 0 0 0 0 0 0 0 0 0 0 0 0 0 0 0 0 0 127 0" result="hardAlpha"/>
<feOffset/>
<feGaussianBlur stdDeviation="1.27711"/>
<feComposite in2="hardAlpha" operator="out"/>
<feColorMatrix type="matrix" values="0 0 0 0 0 0 0 0 0 0 0 0 0 0 0 0 0 0 0.2 0"/>
<feBlend mode="normal" in2="BackgroundImageFix" result="effect1_dropShadow_100_14178"/>
<feBlend mode="normal" in="SourceGraphic" in2="effect1_dropShadow_100_14178" result="shape"/>
</filter>
<linearGradient id="paint0_linear_100_14178" x1="25.1506" y1="35.2651" x2="25.1506" y2="52.506" gradientUnits="userSpaceOnUse">
<stop stop-color="#A3231D"/>
<stop offset="1" stop-color="#D22F27"/>
</linearGradient>
<linearGradient id="paint1_linear_100_14178" x1="39.8357" y1="11" x2="39.8357" y2="52.506" gradientUnits="userSpaceOnUse">
<stop offset="0.31" stop-color="#B22821"/>
<stop offset="0.745189" stop-color="#601412"/>
</linearGradient>
<linearGradient id="paint2_linear_100_14178" x1="39.5164" y1="30.4751" x2="39.8357" y2="52.5052" gradientUnits="userSpaceOnUse">
<stop stop-color="#A3231D"/>
<stop offset="1" stop-color="#D22F27"/>
</linearGradient>
<clipPath id="clip0_100_14178">
<rect width="64" height="64" fill="white"/>
</clipPath>
</defs>
</svg>
