<svg width="64" height="64" viewBox="0 0 64 64" fill="none" xmlns="http://www.w3.org/2000/svg">
<path fill-rule="evenodd" clip-rule="evenodd" d="M46.0511 17.3359C45.2962 17.3359 44.6275 17.8226 44.3953 18.5408C43.6317 20.9026 43.3842 23.3941 43.6615 25.848C43.728 26.436 43.4126 26.9955 42.9913 27.4109C42.8596 27.5407 42.7384 27.6836 42.6295 27.8387L40.9942 30.1708C39.2479 32.661 38.3389 35.6421 38.3988 38.6829L38.4504 41.3084C38.4651 42.0549 37.864 42.668 37.1174 42.668H18.372C16.2941 42.668 15.0146 44.9392 16.0912 46.7163L18.0959 50.0255C18.3375 50.4243 18.7699 50.668 19.2363 50.668H42.9666C42.969 50.668 42.9713 50.6685 42.9735 50.6695V50.6695C42.9831 50.6738 42.9942 50.6685 42.9968 50.6584L48.1649 30.3812C48.2411 30.0823 48.271 29.7824 48.259 29.489L48.2965 19.3761C48.3007 18.2506 47.3894 17.3359 46.2639 17.3359H46.0511Z" fill="#1C1C1D"/>
<path fill-rule="evenodd" clip-rule="evenodd" d="M33.2385 34C33.4489 34 33.6563 33.9499 33.8435 33.8539V33.8539C34.4948 33.5197 34.7518 32.7209 34.4177 32.0697L34.2084 31.6617C33.1877 29.6724 33.2121 27.308 34.2736 25.3401C35.711 22.6753 35.8343 19.4954 34.6077 16.7273V16.7273C34.4117 16.2851 33.9735 16 33.4899 16H33.1289C32.1291 16 31.4598 17.0286 31.8649 17.9427V17.9427C32.7156 19.8624 32.6301 22.0678 31.6332 23.9158C30.1026 26.7534 30.0674 30.1627 31.5392 33.0312V33.0312C31.8444 33.626 32.4566 34 33.1251 34H33.2385ZM24.6974 33.0312C25.0026 33.626 25.6148 34 26.2833 34H26.3967C26.6071 34 26.8145 33.9499 27.0017 33.8539V33.8539C27.653 33.5197 27.91 32.7209 27.5759 32.0697L27.3666 31.6617C26.3459 29.6724 26.3703 27.308 27.4318 25.3401C28.8692 22.6753 28.9925 19.4954 27.7659 16.7273V16.7273C27.5699 16.2851 27.1317 16 26.6481 16H26.2871C25.2873 16 24.618 17.0286 25.0231 17.9427V17.9427C25.8738 19.8624 25.7883 22.0678 24.7914 23.9158C23.2608 26.7534 23.2256 30.1627 24.6974 33.0312V33.0312ZM17.8556 33.0332C18.1601 33.6267 18.7712 34 19.4383 34H19.5596C19.7694 34 19.9763 33.95 20.163 33.8542V33.8542C20.8125 33.521 21.0689 32.7242 20.7357 32.0747L20.5248 31.6637C19.5041 29.6743 19.5285 27.3099 20.59 25.342C22.0274 22.6773 22.1508 19.4973 20.9241 16.7292V16.7292C20.7276 16.2859 20.2882 16 19.8033 16H19.4466C18.4457 16 17.7758 17.0296 18.1813 17.9447V17.9447C19.032 19.8644 18.9465 22.0697 17.9496 23.9178C16.419 26.7553 16.3838 30.1646 17.8556 33.0332V33.0332Z" fill="#A7A7AA"/>
</svg>
