<svg width="64" height="64" viewBox="0 0 64 64" fill="none" xmlns="http://www.w3.org/2000/svg">
<path d="M17.75 44.532H14.7929C14.3285 44.532 13.9251 44.2122 13.8193 43.76L8.16802 19.6211C8.06811 19.1944 8.25637 18.7555 8.64558 18.554C11.0034 17.3332 19.6359 13.332 31.5 13.332C43.3979 13.332 52.7679 17.3559 55.3135 18.5643C55.7237 18.7591 55.9279 19.2115 55.8244 19.6536L50.1807 43.76C50.0749 44.2122 49.6715 44.532 49.2071 44.532H45.75" stroke="#1C1C1D" stroke-width="4" stroke-linecap="round"/>
<path fill-rule="evenodd" clip-rule="evenodd" d="M25.1637 24.7541C26.1908 25.1604 26.6941 26.3224 26.2877 27.3496V27.3496L25.2227 30.0417C24.385 32.1591 24.4705 34.5303 25.4584 36.5819C27.028 39.8413 27.0645 43.6304 25.558 46.9194L24.7398 48.7057V48.7057C24.2798 49.7099 23.0929 50.1511 22.0886 49.6911V49.6911C21.0844 49.2312 20.6432 48.0442 21.1031 47.0399V47.0399L21.9213 45.2537C22.9322 43.0468 22.9077 40.5044 21.8545 38.3173C20.3821 35.2597 20.2547 31.7259 21.5032 28.5702L22.5682 25.8781V25.8781C22.9745 24.851 24.1366 24.3477 25.1637 24.7541V24.7541ZM32.6637 24.7541C33.6908 25.1604 34.1941 26.3224 33.7877 27.3496V27.3496L32.7227 30.0417C31.885 32.1591 31.9705 34.5303 32.9584 36.5819C34.528 39.8413 34.5645 43.6304 33.058 46.9194L32.2398 48.7057V48.7057C31.7798 49.7099 30.5929 50.1511 29.5886 49.6911V49.6911C28.5844 49.2312 28.1432 48.0442 28.6031 47.0399V47.0399L29.4213 45.2537C30.4322 43.0468 30.4077 40.5044 29.3545 38.3173C27.8821 35.2597 27.7547 31.7259 29.0032 28.5702L30.0682 25.8781V25.8781C30.4745 24.851 31.6366 24.3477 32.6637 24.7541V24.7541ZM41.2877 27.3522V27.3522C41.6941 26.3251 41.1908 25.163 40.1637 24.7567V24.7567C39.1366 24.3503 37.9746 24.8536 37.5682 25.8807V25.8807L36.5032 28.5728C35.2547 31.7285 35.3821 35.2623 36.8545 38.3199C37.9077 40.507 37.9322 43.0494 36.9213 45.2563L36.1031 47.0426V47.0426C35.6432 48.0468 36.0844 49.2338 37.0886 49.6937V49.6937C38.0929 50.1537 39.2798 49.7125 39.7398 48.7083V48.7083L40.558 46.922C42.0645 43.633 42.028 39.8439 40.4584 36.5845C39.4705 34.5329 39.385 32.1617 40.2227 30.0443L41.2877 27.3522Z" fill="#1C1C1D"/>
</svg>
