<svg width="64" height="64" viewBox="0 0 64 64" fill="none" xmlns="http://www.w3.org/2000/svg">
<path fill-rule="evenodd" clip-rule="evenodd" d="M9.90322 49.2852C9.48329 49.2852 9.14288 48.9447 9.14288 48.5248V29.9672C9.14288 29.8475 9.17112 29.7295 9.22531 29.6229L12.0817 23.9994H9.42859C8.32402 23.9994 7.42859 23.104 7.42859 21.9994C7.42859 20.8949 8.32402 19.9994 9.42859 19.9994H12.2857C12.8775 19.9994 13.4092 20.2564 13.7754 20.6649L18.8363 10.7012C18.966 10.4459 19.228 10.2852 19.5142 10.2852H31.4286H43.3429C43.6292 10.2852 43.8912 10.4459 44.0208 10.7012L49.0818 20.6649C49.448 20.2564 49.9797 19.9994 50.5714 19.9994H53.4286C54.5332 19.9994 55.4286 20.8949 55.4286 21.9994C55.4286 23.104 54.5332 23.9994 53.4286 23.9994H50.7755L53.6319 29.6229C53.6861 29.7295 53.7143 29.8475 53.7143 29.9672V48.5248C53.7143 48.9447 53.3739 49.2852 52.954 49.2852H46.427C46.0071 49.2852 45.6667 48.9447 45.6667 48.5248V44.1107C45.6667 43.6908 45.3263 43.3504 44.9063 43.3504H17.9508C17.5309 43.3504 17.1905 43.6908 17.1905 44.1107V48.5248C17.1905 48.9447 16.8501 49.2852 16.4302 49.2852H9.90322ZM17.2012 23.428C16.6357 23.428 16.2681 22.8326 16.5214 22.327L20.9136 13.562C21.0425 13.3047 21.3056 13.1423 21.5933 13.1423H31.4285H41.0686C41.3533 13.1423 41.6143 13.3014 41.7446 13.5547L46.2564 22.3197C46.5168 22.8257 46.1495 23.428 45.5803 23.428H31.4285H17.2012ZM15.7143 31.428C14.9253 31.428 14.2857 32.0676 14.2857 32.8566C14.2857 33.6456 14.9253 34.2852 15.7143 34.2852H47.1429C47.9319 34.2852 48.5714 33.6456 48.5714 32.8566C48.5714 32.0676 47.9319 31.428 47.1429 31.428H15.7143Z" fill="#1C1C1D"/>
</svg>
