<svg width="48" height="48" viewBox="0 0 48 48" fill="none" xmlns="http://www.w3.org/2000/svg">
  <circle cx="23.9994" cy="35.5405" r="1.71429" fill="#1C1C1D" />
  <path
    fill-rule="evenodd"
    clip-rule="evenodd"
    d="M17.5186 31.5188C18.1043 32.1046 19.048 32.0897 19.7361 31.6284C20.9553 30.8109 22.4221 30.334 24.0004 30.334C25.5783 30.334 27.0449 30.8107 28.264 31.6279C28.9521 32.0892 29.8957 32.104 30.4814 31.5183C31.0672 30.9325 31.0726 29.9727 30.4107 29.4743C28.6262 28.1305 26.4063 27.334 24.0004 27.334C21.594 27.334 19.3738 28.1308 17.5891 29.475C16.9274 29.9734 16.9328 30.9331 17.5186 31.5188ZM33.0201 26.8622C33.6635 27.384 34.6088 27.3909 35.1946 26.8052C35.7804 26.2194 35.7842 25.264 35.1502 24.7307C32.1361 22.1953 28.246 20.668 23.9991 20.668C19.7525 20.668 15.8627 22.1951 12.8487 24.73C12.2146 25.2633 12.2184 26.2187 12.8043 26.8046C13.39 27.3903 14.3352 27.3834 14.9787 26.8617C17.442 24.8645 20.5808 23.668 23.9991 23.668C27.4176 23.668 30.5567 24.8648 33.0201 26.8622ZM37.7515 22.1286C38.3774 22.6714 39.3238 22.6759 39.9096 22.0901C40.4954 21.5043 40.4984 20.5507 39.8774 20.0024C35.6462 16.2668 30.0877 14 23.9997 14C17.9117 14 12.3532 16.2668 8.12207 20.0024C7.50105 20.5507 7.50402 21.5043 8.08981 22.0901C8.6756 22.6759 9.62203 22.6714 10.2479 22.1286C13.9322 18.9335 18.7402 17 23.9997 17C29.2593 17 34.0672 18.9335 37.7515 22.1286Z"
    fill="#1C1C1D"
  />
</svg>