<svg width="48" height="48" viewBox="0 0 48 48" fill="none" xmlns="http://www.w3.org/2000/svg">
  <path fill-rule="evenodd" clip-rule="evenodd" d="M12 37V30H16V37H12Z" fill="#1C1C1D" />
  <path fill-rule="evenodd" clip-rule="evenodd" d="M19 37V25H23V37H19Z" fill="#1C1C1D" />
  <path fill-rule="evenodd" clip-rule="evenodd" d="M26 37V19H30V37H26Z" fill="#1C1C1D" />
  <path fill-rule="evenodd" clip-rule="evenodd" d="M33 37V14H37V37H33Z" fill="#A7A7AA" />
  <path
    d="M16.1895 16.5C16.1895 15.8559 16.2827 15.2627 16.4691 14.7203C16.664 14.1695 16.9395 13.6949 17.2954 13.2966C17.6513 12.8898 18.0793 12.572 18.5793 12.3432C19.0793 12.1144 19.6386 12 20.2572 12C21.1217 12 21.8378 12.1737 22.4056 12.5212C22.9734 12.8686 23.4352 13.3347 23.7911 13.9195L22.4818 14.8093C22.253 14.4025 21.9691 14.0805 21.6301 13.8432C21.2911 13.5975 20.842 13.4746 20.2827 13.4746C19.8759 13.4746 19.5242 13.5508 19.2276 13.7034C18.9395 13.8559 18.7022 14.0678 18.5157 14.339C18.3293 14.6102 18.1895 14.9322 18.0962 15.3051C18.0115 15.6695 17.9691 16.0678 17.9691 16.5C17.9691 16.9322 18.0115 17.3347 18.0962 17.7076C18.1895 18.072 18.3293 18.3898 18.5157 18.661C18.7106 18.9322 18.9564 19.1441 19.253 19.2966C19.5496 19.4492 19.9056 19.5254 20.3208 19.5254C20.7276 19.5254 21.0666 19.4746 21.3378 19.3729C21.6089 19.2712 21.8547 19.1356 22.075 18.9661V17.4788H20.4225V16.0805H23.7911V19.7034C23.5962 19.8814 23.3674 20.0508 23.1047 20.2119C22.8505 20.3644 22.5708 20.5 22.2657 20.6186C21.9691 20.7373 21.6471 20.8305 21.2996 20.8983C20.9606 20.9661 20.6132 21 20.2572 21C19.6386 21 19.0793 20.8856 18.5793 20.6568C18.0793 20.428 17.6513 20.1144 17.2954 19.7161C16.9395 19.3093 16.664 18.8347 16.4691 18.2924C16.2827 17.7415 16.1895 17.1441 16.1895 16.5Z"
    fill="#1C1C1D"
  />
  <path
    d="M14.4915 13.8573H11.3898L11.25 15.2683C11.3941 15.2259 11.5381 15.192 11.6822 15.1666C11.8347 15.1327 11.9958 15.1157 12.1653 15.1157C12.5297 15.1157 12.8771 15.1793 13.2076 15.3064C13.5466 15.4335 13.8432 15.62 14.0975 15.8657C14.3602 16.1115 14.5678 16.4166 14.7203 16.781C14.8729 17.1454 14.9492 17.5649 14.9492 18.0395C14.9492 18.4547 14.8686 18.8445 14.7076 19.209C14.5551 19.5649 14.339 19.8784 14.0593 20.1496C13.7797 20.4123 13.4449 20.62 13.0551 20.7725C12.6653 20.9251 12.2331 21.0013 11.7585 21.0013C11.3771 21.0013 11.0381 20.9547 10.7415 20.8615C10.4534 20.7767 10.1992 20.6666 9.97881 20.531C9.75847 20.3869 9.5678 20.2301 9.40678 20.0606C9.24576 19.8827 9.11017 19.709 9 19.5395L10.0805 18.5098C10.1653 18.6369 10.2585 18.764 10.3602 18.8912C10.4619 19.0098 10.5763 19.12 10.7034 19.2217C10.839 19.3234 10.9915 19.4081 11.161 19.4759C11.339 19.5352 11.5424 19.5649 11.7712 19.5649C11.9831 19.5649 12.178 19.531 12.3559 19.4632C12.5424 19.3869 12.7034 19.281 12.839 19.1454C12.9746 19.0098 13.0805 18.8488 13.1568 18.6623C13.2415 18.4759 13.2839 18.2683 13.2839 18.0395C13.2839 17.5734 13.1441 17.209 12.8644 16.9462C12.5932 16.6751 12.25 16.5395 11.8347 16.5395C11.5636 16.5395 11.339 16.5861 11.161 16.6793C10.9915 16.764 10.8263 16.8784 10.6653 17.0225L9.63559 16.7047L9.97881 12.4844H14.4915V13.8573Z"
    fill="#1C1C1D"
  />
</svg>