<svg width="33" height="32" viewBox="0 0 33 32" fill="none" xmlns="http://www.w3.org/2000/svg">
<path d="M10.3999 21.1914C10.3999 17.8777 13.0862 15.1914 16.3999 15.1914C19.7136 15.1914 22.3999 17.8777 22.3999 21.1914C22.3999 21.8927 22.2796 22.5658 22.0585 23.1914H10.7413C10.5202 22.5658 10.3999 21.8927 10.3999 21.1914Z" fill="#FFCF54"/>
<path d="M7.9156 14.1212C7.52508 13.7306 7.52508 13.0975 7.9156 12.707V12.707C8.30613 12.3164 8.93929 12.3164 9.32982 12.707L10.744 14.1212C11.1346 14.5117 11.1346 15.1449 10.744 15.5354V15.5354C10.3535 15.9259 9.72034 15.9259 9.32982 15.5354L7.9156 14.1212Z" fill="#FFCF54"/>
<path d="M5.3999 22.1914C4.84762 22.1914 4.3999 21.7437 4.3999 21.1914V21.1914C4.3999 20.6391 4.84762 20.1914 5.3999 20.1914H7.3999C7.95219 20.1914 8.3999 20.6391 8.3999 21.1914V21.1914C8.3999 21.7437 7.95219 22.1914 7.3999 22.1914H5.3999Z" fill="#FFCF54"/>
<path d="M25.3999 22.1914C24.8476 22.1914 24.3999 21.7437 24.3999 21.1914V21.1914C24.3999 20.6391 24.8476 20.1914 25.3999 20.1914H27.3999C27.9522 20.1914 28.3999 20.6391 28.3999 21.1914V21.1914C28.3999 21.7437 27.9522 22.1914 27.3999 22.1914H25.3999Z" fill="#FFCF54"/>
<path d="M23.4703 15.5351C23.0798 15.9256 22.4466 15.9256 22.0561 15.5351V15.5351C21.6656 15.1446 21.6656 14.5114 22.0561 14.1209L23.4703 12.7067C23.8608 12.3161 24.494 12.3161 24.8845 12.7067V12.7067C25.275 13.0972 25.275 13.7303 24.8845 14.1209L23.4703 15.5351Z" fill="#FFCF54"/>
<path d="M4.3999 24H28.3999V25H4.3999V24Z" fill="#6F6F72"/>
<path fill-rule="evenodd" clip-rule="evenodd" d="M16.9983 4.99844C16.9983 4.66707 16.7297 4.39844 16.3983 4.39844C16.067 4.39844 15.7983 4.66707 15.7983 4.99844V11.0499L14.3226 9.57417C14.0883 9.33986 13.7084 9.33986 13.4741 9.57417C13.2398 9.80849 13.2398 10.1884 13.4741 10.4227L15.9739 12.9225C15.974 12.9226 15.974 12.9226 15.9741 12.9227C16.0316 12.9802 16.0979 13.0236 16.1687 13.0529C16.2394 13.0822 16.317 13.0984 16.3983 13.0984C16.4797 13.0984 16.5573 13.0822 16.628 13.0529C16.6988 13.0236 16.7651 12.9802 16.8226 12.9227C16.8227 12.9226 16.8227 12.9226 16.8228 12.9225L19.3226 10.4227C19.5569 10.1884 19.5569 9.80849 19.3226 9.57417C19.0883 9.33986 18.7084 9.33986 18.4741 9.57417L16.9983 11.0499V4.99844Z" fill="#6F6F72"/>
</svg>
