<svg width="33" height="32" viewBox="0 0 33 32" fill="none" xmlns="http://www.w3.org/2000/svg">
<circle cx="16.2" cy="16" r="6" fill="#FFCF54"/>
<path d="M15.7 4.5C15.7 4.22386 15.9238 4 16.2 4V4C16.4761 4 16.7 4.22386 16.7 4.5V7.5C16.7 7.77614 16.4761 8 16.2 8V8C15.9238 8 15.7 7.77614 15.7 7.5V4.5Z" fill="#FFCF54"/>
<path d="M15.7 24.5C15.7 24.2239 15.9238 24 16.2 24V24C16.4761 24 16.7 24.2239 16.7 24.5V27.5C16.7 27.7761 16.4761 28 16.2 28V28C15.9238 28 15.7 27.7761 15.7 27.5V24.5Z" fill="#FFCF54"/>
<path d="M15.2 5C15.2 4.44772 15.6477 4 16.2 4V4C16.7522 4 17.2 4.44772 17.2 5V7C17.2 7.55228 16.7522 8 16.2 8V8C15.6477 8 15.2 7.55228 15.2 7V5Z" fill="#FFCF54"/>
<path d="M15.2 25C15.2 24.4477 15.6477 24 16.2 24V24C16.7522 24 17.2 24.4477 17.2 25V27C17.2 27.5523 16.7522 28 16.2 28V28C15.6477 28 15.2 27.5523 15.2 27V25Z" fill="#FFCF54"/>
<path d="M7.71565 8.92976C7.32513 8.53924 7.32513 7.90607 7.71565 7.51555V7.51555C8.10618 7.12503 8.73934 7.12503 9.12987 7.51555L10.5441 8.92976C10.9346 9.32029 10.9346 9.95345 10.5441 10.344V10.344C10.1536 10.7345 9.52039 10.7345 9.12987 10.344L7.71565 8.92976Z" fill="#FFCF54"/>
<path d="M21.8563 23.0704C21.4658 22.6799 21.4658 22.0467 21.8563 21.6562V21.6562C22.2468 21.2657 22.88 21.2657 23.2705 21.6562L24.6847 23.0704C25.0752 23.4609 25.0752 24.0941 24.6847 24.4846V24.4846C24.2942 24.8751 23.661 24.8751 23.2705 24.4846L21.8563 23.0704Z" fill="#FFCF54"/>
<path d="M5.19995 17C4.64767 17 4.19995 16.5523 4.19995 16V16C4.19995 15.4477 4.64767 15 5.19995 15H7.19995C7.75224 15 8.19995 15.4477 8.19995 16V16C8.19995 16.5523 7.75224 17 7.19995 17H5.19995Z" fill="#FFCF54"/>
<path d="M25.2 17C24.6477 17 24.2 16.5523 24.2 16V16C24.2 15.4477 24.6477 15 25.2 15H27.2C27.7522 15 28.2 15.4477 28.2 16V16C28.2 16.5523 27.7522 17 27.2 17H25.2Z" fill="#FFCF54"/>
<path d="M9.12971 24.4843C8.73919 24.8748 8.10602 24.8748 7.7155 24.4843V24.4843C7.32498 24.0938 7.32498 23.4606 7.7155 23.0701L9.12971 21.6559C9.52024 21.2653 10.1534 21.2653 10.5439 21.6559V21.6559C10.9345 22.0464 10.9345 22.6796 10.5439 23.0701L9.12971 24.4843Z" fill="#FFCF54"/>
<path d="M23.2703 10.3437C22.8798 10.7342 22.2466 10.7342 21.8561 10.3437V10.3437C21.4656 9.95315 21.4656 9.31999 21.8561 8.92946L23.2703 7.51525C23.6609 7.12472 24.294 7.12472 24.6846 7.51525V7.51525C25.0751 7.90577 25.0751 8.53894 24.6846 8.92946L23.2703 10.3437Z" fill="#FFCF54"/>
</svg>
