<svg width="64" height="64" viewBox="0 0 64 64" fill="none" xmlns="http://www.w3.org/2000/svg">
<path fill-rule="evenodd" clip-rule="evenodd" d="M15.2374 17.3359C15.9923 17.3359 16.661 17.8226 16.8932 18.5408C17.6825 20.9821 17.9204 23.5621 17.5972 26.0959C17.541 26.5362 17.7726 26.9583 18.1129 27.2434C18.3172 27.4145 18.5015 27.6139 18.6596 27.8394L20.295 30.1714C22.0413 32.6616 22.9502 35.6427 22.8904 38.6836L22.832 41.6496C22.821 42.2095 23.2718 42.6693 23.8318 42.6693H44.1011C45.6595 42.6693 46.6192 44.3727 45.8117 45.7055L43.0966 50.1874C42.9154 50.4865 42.5911 50.6693 42.2413 50.6693H18.3178C18.3178 50.6693 18.3178 50.6693 18.3178 50.6692V50.6692C18.3178 50.6692 18.3177 50.6692 18.3177 50.6692L18.3062 50.6744C18.3016 50.6765 18.2962 50.674 18.2949 50.669L13.1242 30.3818C13.0494 30.0882 13.0192 29.7936 13.0296 29.5052L12.992 19.3761C12.9878 18.2506 13.8991 17.3359 15.0246 17.3359H15.2374Z" fill="#1C1C1D"/>
<path fill-rule="evenodd" clip-rule="evenodd" d="M33.4975 18.1231C33.4975 20.6701 35.4056 22.8099 37.9869 23.4139C38.7935 23.6027 39.474 22.9128 39.474 22.0843V14.1618C39.474 13.3333 38.7935 12.6434 37.9869 12.8322C35.4056 13.4362 33.4975 15.576 33.4975 18.1231ZM38.3025 32.0694C40.412 30.642 41.1149 27.8625 40.1686 25.3861C39.8729 24.6123 38.9201 24.4353 38.234 24.8996L31.6724 29.3395C30.9863 29.8038 30.7962 30.754 31.4046 31.3163C33.3514 33.1156 36.193 33.4968 38.3025 32.0694ZM41.5212 22.7544C43.3039 20.7924 46.1015 20.1652 48.3273 21.4034C50.5531 22.6417 51.4953 25.3494 50.7683 27.8988C50.5411 28.6954 49.6074 28.9547 48.8834 28.5519L41.9601 24.7004C41.2362 24.2976 40.9641 23.3676 41.5212 22.7544Z" fill="#A7A7AA"/>
</svg>
